0
SECTION
2
HEADER
9
$INSUNITS
70
4
9
$ACADVER
1
AC1014
9
$HANDSEED
5
FFFF
0
ENDSEC
0
SECTION
2
TABLES
0
TABLE
2
VPORT
5
8
100
AcDbSymbolTable
0
ENDTAB
0
TABLE
2
LTYPE
5
5
100
AcDbSymbolTable
0
LTYPE
5
14
100
AcDbSymbolTableRecord
100
AcDbLinetypeTableRecord
2
BYBLOCK
70
0
0
LTYPE
5
15
100
AcDbSymbolTableRecord
100
AcDbLinetypeTableRecord
2
BYLAYER
70
0
0
ENDTAB
0
TABLE
2
LAYER
5
2
100
AcDbSymbolTable
70
2
0
LAYER
5
50
100
AcDbSymbolTableRecord
100
AcDbLayerTableRecord
2
0
70
0
6
CONTINUOUS
0
ENDTAB
0
TABLE
2
STYLE
5
3
100
AcDbSymbolTable
70
1
0
STYLE
5
11
100
AcDbSymbolTableRecord
100
AcDbTextStyleTableRecord
2
STANDARD
70
0
0
ENDTAB
0
TABLE
2
VIEW
5
6
100
AcDbSymbolTable
70
0
0
ENDTAB
0
TABLE
2
UCS
5
7
100
AcDbSymbolTable
70
0
0
ENDTAB
0
TABLE
2
APPID
5
9
100
AcDbSymbolTable
70
2
0
APPID
5
12
100
AcDbSymbolTableRecord
100
AcDbRegAppTableRecord
2
ACAD
70
0
0
ENDTAB
0
TABLE
2
DIMSTYLE
5
A
100
AcDbSymbolTable
70
1
0
ENDTAB
0
TABLE
2
BLOCK_RECORD
5
1
100
AcDbSymbolTable
70
1
0
BLOCK_RECORD
5
1F
100
AcDbSymbolTableRecord
100
AcDbBlockTableRecord
2
*MODEL_SPACE
0
BLOCK_RECORD
5
1B
100
AcDbSymbolTableRecord
100
AcDbBlockTableRecord
2
*PAPER_SPACE
0
ENDTAB
0
ENDSEC
0
SECTION
2
BLOCKS
0
BLOCK
5
20
100
AcDbEntity
100
AcDbBlockBegin
2
*MODEL_SPACE
0
ENDBLK
5
21
100
AcDbEntity
100
AcDbBlockEnd
0
BLOCK
5
1C
100
AcDbEntity
100
AcDbBlockBegin
2
*PAPER_SPACE
0
ENDBLK
5
1D
100
AcDbEntity
100
AcDbBlockEnd
0
ENDSEC
0
SECTION
2
ENTITIES
0
LWPOLYLINE
5
100
100
AcDbEntity
8
0
100
AcDbPolyline
90
32
70
1
43
0.0
10
40.76486837144833
20
28.952124389386228
10
21.131731281903583
20
13.475046886732756
10
18.036315781372899
20
17.401674304641695
10
37.669452870917667
20
32.878751807295174
42
0.21068343774904091
10
1.1306108686541034
20
49.987215556216796
10
1.7156098019897581
20
24.994060968450256
10
-2.8831306421592622
20
24.886421164715479
10
-3.4681295754915715
20
49.879575752482125
42
0.19716626027596873
10
-37.501110444146718
20
33.070632220384169
10
-18.001945686951345
20
17.425103345598568
10
-20.912014057659913
20
13.798258700758952
10
-40.411178814855198
20
29.443787575544661
42
0.15363057673240438
10
-49.990087927467542
20
0.99554457663269091
10
-24.999270955083439
20
1.6730894480612428
10
-24.871892519254875
20
-3.0251841427469657
10
-49.862709491638967
20
-3.7027290141755098
42
0.17430045699795496
10
-36.090242049017398
20
-34.604832449288601
10
-18.887354443015205
20
-16.464803286818771
10
-15.440748902146213
20
-19.733351931959479
10
-32.643636508147658
20
-37.87338109443003
42
0.17048601671485403
10
-1.7956574978629689
20
-49.967745738129594
10
-2.0980895418086662
20
-24.969575107885564
10
2.7015592191981863
20
-24.91150815544799
10
3.0039912631438916
20
-49.909678785692009
42
0.18756763696380552
10
35.929378504365076
20
-34.771824230115797
10
17.142613674391903
20
-18.27765958854383
10
20.342481614856851
20
-14.633027211529033
10
39.129246444830059
20
-31.127191853100996
42
0.161324378717738
10
49.974075103364122
20
-1.6099122843572395
10
24.977609666606789
20
-2.0302879128085682
10
24.89521604343032
20
2.8690193127958699
10
49.891681480187657
20
3.2893949412472088
42
0.13881097147063021
0
ARC
5
101
100
AcDbEntity
8
0
100
AcDbCircle
10
0
20
0
30
0
40
50.000000000000014
100
AcDbArc
50
41.115192442045611
51
88.704304945603596
0
ARC
5
102
100
AcDbEntity
8
0
100
AcDbCircle
10
0
20
0
30
0
40
50.000000000000014
100
AcDbArc
50
3.7720932563609972
51
35.383224476847921
0
ARC
5
103
100
AcDbEntity
8
0
100
AcDbCircle
10
0
20
0
30
0
40
50.000000000000014
100
AcDbArc
50
321.49786216653632
51
358.15485750251986
0
ARC
5
104
100
AcDbEntity
8
0
100
AcDbCircle
10
0
20
0
30
0
40
49.999999999999993
100
AcDbArc
50
273.44439468405977
51
315.93799039790622
0
ARC
5
105
100
AcDbEntity
8
0
100
AcDbCircle
10
0
20
0
30
0
40
50
100
AcDbArc
50
229.24145477745691
51
267.94188550630111
0
ARC
5
106
100
AcDbEntity
8
0
100
AcDbCircle
10
0
20
0
30
0
40
50.000000000000014
100
AcDbArc
50
93.977377413822325
51
138.59230172911674
0
ARC
5
107
100
AcDbEntity
8
0
100
AcDbCircle
10
0
20
0
30
0
40
50
100
AcDbArc
50
143.92273135556783
51
178.85911455757829
0
LWPOLYLINE
5
108
100
AcDbEntity
8
0
100
AcDbPolyline
90
4
70
1
43
0.0
10
-32.76106134789849
20
15.717244320030922
10
-42.08479181664849
20
15.717244320030924
10
-42.08479181664849
20
20.717244320030925
10
-32.76106134789849
20
20.717244320030922
0
LWPOLYLINE
5
109
100
AcDbEntity
8
0
100
AcDbPolyline
90
4
70
1
43
0.0
10
-7.0006965983885028
20
34.325882776801315
10
-16.285364567138501
20
34.325882776801322
10
-16.285364567138501
20
39.325882776801322
10
-7.0006965983885019
20
39.325882776801315
0
LWPOLYLINE
5
110
100
AcDbEntity
8
0
100
AcDbPolyline
90
4
70
1
43
0.0
10
-32.371950639794981
20
-11.955990003425816
10
-41.656618608544974
20
-11.955990003425814
10
-41.656618608544974
20
-6.9559900034258195
10
-32.371950639794981
20
-6.9559900034258213
0
LWPOLYLINE
5
111
100
AcDbEntity
8
0
100
AcDbPolyline
90
4
70
1
43
0.0
10
-11.799198433243397
20
-33.041762883663878
10
-21.12292890199339
20
-33.041762883663878
10
-21.12292890199339
20
-28.041762883663885
10
-11.799198433243397
20
-28.041762883663882
0
LWPOLYLINE
5
112
100
AcDbEntity
8
0
100
AcDbPolyline
90
4
70
1
43
0.0
10
12.606768083131046
20
-32.86113071749137
10
6.1272758956310449
20
-32.86113071749137
10
6.1272758956310449
20
-27.86113071749137
10
12.606768083131046
20
-27.86113071749137
0
LWPOLYLINE
5
113
100
AcDbEntity
8
0
100
AcDbPolyline
90
4
70
1
43
0.0
10
36.391012099953635
20
-18.818964112497721
10
27.067281631203638
20
-18.818964112497721
10
27.067281631203638
20
-13.818964112497722
10
36.391012099953635
20
-13.818964112497722
0
LWPOLYLINE
5
114
100
AcDbEntity
8
0
100
AcDbPolyline
90
4
70
1
43
0.0
10
35.935933166983205
20
6.7071844299173975
10
30.110737854483208
20
6.7071844299173993
10
30.110737854483208
20
11.707184429917394
10
35.935933166983205
20
11.707184429917394
0
LWPOLYLINE
5
115
100
AcDbEntity
8
0
100
AcDbPolyline
90
4
70
1
43
0.0
10
23.412826170802433
20
25.618922955537087
10
13.51282607543502
20
25.618922955537087
10
13.51282607543502
20
30.61892295553708
10
23.412826170802429
20
30.61892295553708
0
ENDSEC
0
SECTION
2
OBJECTS
0
DICTIONARY
5
C
100
AcDbDictionary
3
ACAD_GROUP
350
D
3
ACAD_MLINESTYLE
350
17
0
DICTIONARY
5
D
100
AcDbDictionary
0
DICTIONARY
5
1A
330
C
100
AcDbDictionary
0
DICTIONARY
5
17
100
AcDbDictionary
0
ENDSEC
0
EOF
