0
SECTION
2
HEADER
9
$INSUNITS
70
4
9
$ACADVER
1
AC1014
9
$HANDSEED
5
FFFF
0
ENDSEC
0
SECTION
2
TABLES
0
TABLE
2
VPORT
5
8
100
AcDbSymbolTable
0
ENDTAB
0
TABLE
2
LTYPE
5
5
100
AcDbSymbolTable
0
LTYPE
5
14
100
AcDbSymbolTableRecord
100
AcDbLinetypeTableRecord
2
BYBLOCK
70
0
0
LTYPE
5
15
100
AcDbSymbolTableRecord
100
AcDbLinetypeTableRecord
2
BYLAYER
70
0
0
ENDTAB
0
TABLE
2
LAYER
5
2
100
AcDbSymbolTable
70
2
0
LAYER
5
50
100
AcDbSymbolTableRecord
100
AcDbLayerTableRecord
2
0
70
0
6
CONTINUOUS
0
ENDTAB
0
TABLE
2
STYLE
5
3
100
AcDbSymbolTable
70
1
0
STYLE
5
11
100
AcDbSymbolTableRecord
100
AcDbTextStyleTableRecord
2
STANDARD
70
0
0
ENDTAB
0
TABLE
2
VIEW
5
6
100
AcDbSymbolTable
70
0
0
ENDTAB
0
TABLE
2
UCS
5
7
100
AcDbSymbolTable
70
0
0
ENDTAB
0
TABLE
2
APPID
5
9
100
AcDbSymbolTable
70
2
0
APPID
5
12
100
AcDbSymbolTableRecord
100
AcDbRegAppTableRecord
2
ACAD
70
0
0
ENDTAB
0
TABLE
2
DIMSTYLE
5
A
100
AcDbSymbolTable
70
1
0
ENDTAB
0
TABLE
2
BLOCK_RECORD
5
1
100
AcDbSymbolTable
70
1
0
BLOCK_RECORD
5
1F
100
AcDbSymbolTableRecord
100
AcDbBlockTableRecord
2
*MODEL_SPACE
0
BLOCK_RECORD
5
1B
100
AcDbSymbolTableRecord
100
AcDbBlockTableRecord
2
*PAPER_SPACE
0
ENDTAB
0
ENDSEC
0
SECTION
2
BLOCKS
0
BLOCK
5
20
100
AcDbEntity
100
AcDbBlockBegin
2
*MODEL_SPACE
0
ENDBLK
5
21
100
AcDbEntity
100
AcDbBlockEnd
0
BLOCK
5
1C
100
AcDbEntity
100
AcDbBlockBegin
2
*PAPER_SPACE
0
ENDBLK
5
1D
100
AcDbEntity
100
AcDbBlockEnd
0
ENDSEC
0
SECTION
2
ENTITIES
0
LINE
5
100
100
AcDbEntity
8
0
100
AcDbLine
10
13.618876606760107
20
1.6049999905893395
30
0
11
13.618876615069276
21
13.618876596246995
31
0
0
LINE
5
101
100
AcDbEntity
8
0
100
AcDbLine
10
-13.618876596241627
20
13.618876615064185
30
0
11
-13.61887660454075
21
1.6050000094065278
31
0
0
LINE
5
102
100
AcDbEntity
8
0
100
AcDbLine
10
13.618876604561731
20
-1.6050000094218755
30
0
11
13.618876596246658
21
-13.618876615079532
31
0
0
LINE
5
103
100
AcDbEntity
8
0
100
AcDbLine
10
-13.618876615070278
20
-13.618876596245997
30
0
11
-13.618876606768943
21
-1.6049999905883396
31
0
0
LINE
5
104
100
AcDbEntity
8
0
100
AcDbLine
10
1.6050000049809192
20
7.1988766045459958
30
0
11
1.6050000094116188
21
13.618876604543164
31
0
0
LINE
5
105
100
AcDbEntity
8
0
100
AcDbLine
10
0
20
0
30
0
11
2.4999998897854012
21
-1.728089694335338e-09
31
0
0
LINE
5
106
100
AcDbEntity
8
0
100
AcDbLine
10
7.198876606753025
20
1.6049999950361165
30
0
11
13.618876606760107
21
1.6049999905893395
31
0
0
LINE
5
107
100
AcDbEntity
8
0
100
AcDbLine
10
7.1988766045341919
20
-1.6050000049805009
30
0
11
13.618876604561731
21
-1.6050000094218755
31
0
0
LINE
5
108
100
AcDbEntity
8
0
100
AcDbLine
10
13.618876615069276
20
13.618876596246995
30
0
11
1.6050000094116188
21
13.618876604543164
31
0
0
LINE
5
109
100
AcDbEntity
8
0
100
AcDbLine
10
-1.6049999905839689
20
13.618876606764857
30
0
11
-13.618876596241627
21
13.618876615064185
31
0
0
LINE
5
110
100
AcDbEntity
8
0
100
AcDbLine
10
-13.618876596241627
20
13.618876615064185
30
0
11
0
21
0
31
0
0
LINE
5
111
100
AcDbEntity
8
0
100
AcDbLine
10
0
20
0
30
0
11
13.618876615069276
21
13.618876596246995
31
0
0
LINE
5
112
100
AcDbEntity
8
0
100
AcDbLine
10
-13.618876615070278
20
-13.618876596245997
30
0
11
0
21
0
31
0
0
LINE
5
113
100
AcDbEntity
8
0
100
AcDbLine
10
0
20
0
30
0
11
13.618876596246658
21
-13.618876615079532
31
0
0
LINE
5
114
100
AcDbEntity
8
0
100
AcDbLine
10
7.198876606753025
20
1.6049999950361165
30
0
11
7.1988766045341919
21
-1.6050000049805009
31
0
0
LINE
5
115
100
AcDbEntity
8
0
100
AcDbLine
10
-7.1988766067689429
20
-1.6049999950253981
30
0
11
-13.618876606768943
21
-1.6049999905883396
31
0
0
LINE
5
116
100
AcDbEntity
8
0
100
AcDbLine
10
-7.1988766045407484
20
1.6050000049705762
30
0
11
-7.1988766067689429
21
-1.6049999950253981
31
0
0
LINE
5
117
100
AcDbEntity
8
0
100
AcDbLine
10
-7.1988766045407484
20
1.6050000049705762
30
0
11
-13.61887660454075
21
1.6050000094065278
31
0
0
LINE
5
118
100
AcDbEntity
8
0
100
AcDbLine
10
-1.6049999950204963
20
7.1988766067648609
30
0
11
-1.6049999905839689
21
13.618876606764857
31
0
0
LINE
5
119
100
AcDbEntity
8
0
100
AcDbLine
10
1.6050000049809192
20
7.1988766045459958
30
0
11
-1.6049999950204963
21
7.1988766067648609
31
0
0
LINE
5
120
100
AcDbEntity
8
0
100
AcDbLine
10
-1.6050000049831981
20
-7.1988766045522299
30
0
11
-1.6050000094126196
21
-13.618876604552232
31
0
0
LINE
5
121
100
AcDbEntity
8
0
100
AcDbLine
10
1.6049999950452907
20
-7.1988766067714947
30
0
11
1.604999990589002
21
-13.618876606771501
31
0
0
LINE
5
122
100
AcDbEntity
8
0
100
AcDbLine
10
1.6049999950452907
20
-7.1988766067714947
30
0
11
-1.6050000049831981
21
-7.1988766045522299
31
0
0
LINE
5
123
100
AcDbEntity
8
0
100
AcDbLine
10
13.618876596246658
20
-13.618876615079532
30
0
11
1.604999990589002
21
-13.618876606771501
31
0
0
LINE
5
124
100
AcDbEntity
8
0
100
AcDbLine
10
-1.6050000094126196
20
-13.618876604552232
30
0
11
-13.618876615070278
21
-13.618876596245997
31
0
0
LINE
5
125
100
AcDbEntity
8
0
100
AcDbLine
10
81.650838267359831
20
319732.52388108498
30
0
11
6.3299810468765649
21
319732.52388113737
31
0
0
LINE
5
126
100
AcDbEntity
8
0
100
AcDbLine
10
81.650838267359831
20
319732.52388108498
30
0
11
102.86404175640831
21
319753.73708446714
31
0
0
LINE
5
127
100
AcDbEntity
8
0
100
AcDbLine
10
92.864040782751459
20
319735.02388105239
30
0
11
102.86404078275146
21
319735.02388104546
31
0
0
LINE
5
128
100
AcDbEntity
8
0
100
AcDbLine
10
102.86404175640831
20
319753.73708446714
30
0
11
84.150838334729215
21
319753.73708448018
31
0
0
LINE
5
129
100
AcDbEntity
8
0
100
AcDbLine
10
92.864041662439462
20
319730.02388105227
30
0
11
102.86404166243946
21
319730.02388098824
31
0
0
LINE
5
130
100
AcDbEntity
8
0
100
AcDbLine
10
102.86404078275146
20
319735.02388104546
30
0
11
102.86404175640831
21
319753.73708446714
31
0
0
LINE
5
131
100
AcDbEntity
8
0
100
AcDbLine
10
60.437634346799847
20
319753.73708403565
30
0
11
60.437632730016247
21
319735.02388061397
31
0
0
LINE
5
132
100
AcDbEntity
8
0
100
AcDbLine
10
60.43763488499927
20
319711.31067759614
30
0
11
60.43763320842389
21
319730.02388101781
31
0
0
LINE
5
133
100
AcDbEntity
8
0
100
AcDbLine
10
84.150839298651789
20
319743.73708448018
30
0
11
84.150838334729215
21
319753.73708448018
31
0
0
LINE
5
134
100
AcDbEntity
8
0
100
AcDbLine
10
60.43763488499927
20
319711.31067759614
30
0
11
81.650838267359831
21
319732.52388108498
31
0
0
LINE
5
135
100
AcDbEntity
8
0
100
AcDbLine
10
102.86404166243946
20
319730.02388098824
30
0
11
102.86404162014236
21
319711.31067756657
31
0
0
LINE
5
136
100
AcDbEntity
8
0
100
AcDbLine
10
60.437634346799847
20
319753.73708403565
30
0
11
81.650838267359831
21
319732.52388108498
31
0
0
LINE
5
137
100
AcDbEntity
8
0
100
AcDbLine
10
84.150839311503006
20
319721.31067768624
30
0
11
79.150837480238863
21
319721.31067768973
31
0
0
LINE
5
138
100
AcDbEntity
8
0
100
AcDbLine
10
84.150839311503006
20
319721.31067768624
30
0
11
84.150838198470254
21
319711.31067768624
31
0
0
LINE
5
139
100
AcDbEntity
8
0
100
AcDbLine
10
79.150837480238863
20
319721.31067768973
30
0
11
79.150838306682573
21
319711.31067768973
31
0
0
LINE
5
140
100
AcDbEntity
8
0
100
AcDbLine
10
84.150839298651789
20
319743.73708448018
30
0
11
79.150837761566521
21
319743.73708448361
31
0
0
LINE
5
141
100
AcDbEntity
8
0
100
AcDbLine
10
79.150837761566521
20
319743.73708448361
30
0
11
79.15083776847888
21
319753.73708448361
31
0
0
LINE
5
142
100
AcDbEntity
8
0
100
AcDbLine
10
92.864040782751459
20
319735.02388105239
30
0
11
92.864041662439462
21
319730.02388105227
31
0
0
LINE
5
143
100
AcDbEntity
8
0
100
AcDbLine
10
81.650838267359831
20
319732.52388108498
30
0
11
102.86404162014236
21
319711.31067756657
31
0
0
LINE
5
144
100
AcDbEntity
8
0
100
AcDbLine
10
79.15083776847888
20
319753.73708448361
30
0
11
60.437634346799847
21
319753.73708403565
31
0
0
LINE
5
145
100
AcDbEntity
8
0
100
AcDbLine
10
79.150838306682573
20
319711.31067768973
30
0
11
60.43763488499927
21
319711.31067759614
31
0
0
LINE
5
146
100
AcDbEntity
8
0
100
AcDbLine
10
70.437633208415832
20
319730.02388106787
30
0
11
60.43763320842389
21
319730.02388101781
31
0
0
LINE
5
147
100
AcDbEntity
8
0
100
AcDbLine
10
70.437632730016233
20
319735.02388106787
30
0
11
70.437633208415832
21
319730.02388106787
31
0
0
LINE
5
148
100
AcDbEntity
8
0
100
AcDbLine
10
70.437632730016233
20
319735.02388106787
30
0
11
60.437632730016247
21
319735.02388061397
31
0
0
LINE
5
149
100
AcDbEntity
8
0
100
AcDbLine
10
102.86404162014236
20
319711.31067756657
30
0
11
84.150838198470254
21
319711.31067768624
31
0
0
ENDSEC
0
SECTION
2
OBJECTS
0
DICTIONARY
5
C
100
AcDbDictionary
3
ACAD_GROUP
350
D
3
ACAD_MLINESTYLE
350
17
0
DICTIONARY
5
D
100
AcDbDictionary
0
DICTIONARY
5
1A
330
C
100
AcDbDictionary
0
DICTIONARY
5
17
100
AcDbDictionary
0
ENDSEC
0
EOF
