0
SECTION
2
HEADER
9
$INSUNITS
70
4
9
$ACADVER
1
AC1014
9
$HANDSEED
5
FFFF
0
ENDSEC
0
SECTION
2
TABLES
0
TABLE
2
VPORT
5
8
100
AcDbSymbolTable
0
ENDTAB
0
TABLE
2
LTYPE
5
5
100
AcDbSymbolTable
0
LTYPE
5
14
100
AcDbSymbolTableRecord
100
AcDbLinetypeTableRecord
2
BYBLOCK
70
0
0
LTYPE
5
15
100
AcDbSymbolTableRecord
100
AcDbLinetypeTableRecord
2
BYLAYER
70
0
0
ENDTAB
0
TABLE
2
LAYER
5
2
100
AcDbSymbolTable
70
2
0
LAYER
5
50
100
AcDbSymbolTableRecord
100
AcDbLayerTableRecord
2
0
70
0
6
CONTINUOUS
0
ENDTAB
0
TABLE
2
STYLE
5
3
100
AcDbSymbolTable
70
1
0
STYLE
5
11
100
AcDbSymbolTableRecord
100
AcDbTextStyleTableRecord
2
STANDARD
70
0
0
ENDTAB
0
TABLE
2
VIEW
5
6
100
AcDbSymbolTable
70
0
0
ENDTAB
0
TABLE
2
UCS
5
7
100
AcDbSymbolTable
70
0
0
ENDTAB
0
TABLE
2
APPID
5
9
100
AcDbSymbolTable
70
2
0
APPID
5
12
100
AcDbSymbolTableRecord
100
AcDbRegAppTableRecord
2
ACAD
70
0
0
ENDTAB
0
TABLE
2
DIMSTYLE
5
A
100
AcDbSymbolTable
70
1
0
ENDTAB
0
TABLE
2
BLOCK_RECORD
5
1
100
AcDbSymbolTable
70
1
0
BLOCK_RECORD
5
1F
100
AcDbSymbolTableRecord
100
AcDbBlockTableRecord
2
*MODEL_SPACE
0
BLOCK_RECORD
5
1B
100
AcDbSymbolTableRecord
100
AcDbBlockTableRecord
2
*PAPER_SPACE
0
ENDTAB
0
ENDSEC
0
SECTION
2
BLOCKS
0
BLOCK
5
20
100
AcDbEntity
100
AcDbBlockBegin
2
*MODEL_SPACE
0
ENDBLK
5
21
100
AcDbEntity
100
AcDbBlockEnd
0
BLOCK
5
1C
100
AcDbEntity
100
AcDbBlockBegin
2
*PAPER_SPACE
0
ENDBLK
5
1D
100
AcDbEntity
100
AcDbBlockEnd
0
ENDSEC
0
SECTION
2
ENTITIES
0
LWPOLYLINE
5
100
100
AcDbEntity
8
0
100
AcDbPolyline
90
32
70
1
43
0.0
10
40.193772040026978
20
29.739883812724415
10
20.590775604052418
20
14.224648373609439
10
18.573794996967479
20
16.773037910286135
10
38.176791432942053
20
32.288273349401095
42
0.21863324565090972
10
0.38928813251874667
20
49.998484524532145
10
0.91970395690434081
20
25.004111976831712
10
-1.9796432586289259
20
24.942583741202341
10
-2.5100590830111758
20
49.936956288902856
42
0.20610181118116996
10
-37.997794910887578
20
32.498732004650975
10
-18.527809852986785
20
16.816905521580843
10
-20.378265377988086
20
14.519447284747727
10
-39.848250435888794
20
30.20127376781797
42
0.15901076911231235
10
-49.992096815470816
20
0.88896343715240145
10
-24.993964709951033
20
1.1945632326055866
10
-24.957292734496647
20
-1.8052126200568153
10
-49.95542484001642
20
-2.1108124155099923
42
0.18903557292221487
10
-35.208151821102895
20
-35.501916079870533
10
-18.153670131709298
20
-17.222292060046197
10
-15.923556001290899
20
-19.302938826152403
10
-32.978037690683742
20
-37.582562845977442
42
0.17663820656454327
10
-1.0446856987892603
20
-49.989085126562848
10
-1.2974247149238918
20
-24.990362699412238
10
1.802416866042811
20
-24.959023061411525
10
2.055155882177448
20
-49.957745488562139
42
0.19639391054291891
10
36.44855820281046
20
-34.227220233848058
10
17.694244147166891
20
-17.696167505655286
10
19.777156790919175
20
-15.333123934644187
10
38.531470846562769
20
-31.86417666283695
42
0.16999315624995448
10
49.992401509006001
20
-0.87166011858648129
10
24.995055525372475
20
-1.235931685581714
10
24.948428764797058
20
1.9637286003234009
10
49.945774748430587
20
2.328000167318641
42
0.14869076244502319
0
ARC
5
101
100
AcDbEntity
8
0
100
AcDbCircle
10
0
20
0
30
0
40
50.000000000000014
100
AcDbArc
50
40.22309184154053
51
89.553904152851743
0
ARC
5
102
100
AcDbEntity
8
0
100
AcDbCircle
10
0
20
0
30
0
40
50.000000000000014
100
AcDbArc
50
2.668656479423023
51
36.498210242476581
0
ARC
5
103
100
AcDbEntity
8
0
100
AcDbCircle
10
0
20
0
30
0
40
49.999999999999993
100
AcDbArc
50
320.41044363300313
51
359.00110047932952
0
ARC
5
104
100
AcDbEntity
8
0
100
AcDbCircle
10
0
20
0
30
0
40
49.999999999999993
100
AcDbArc
50
272.35569879587706
51
316.80021231373792
0
ARC
5
105
100
AcDbEntity
8
0
100
AcDbCircle
10
0
20
0
30
0
40
50.000000000000007
100
AcDbArc
50
228.73361801895427
51
268.80279125368645
0
ARC
5
106
100
AcDbEntity
8
0
100
AcDbCircle
10
0
20
0
30
0
40
50.000000000000007
100
AcDbArc
50
92.87752533656419
51
139.46031012741327
0
ARC
5
107
100
AcDbEntity
8
0
100
AcDbCircle
10
0
20
0
30
0
40
50.000000000000014
100
AcDbArc
50
142.84125161704043
51
178.9812692628492
0
LWPOLYLINE
5
108
100
AcDbEntity
8
0
100
AcDbPolyline
90
4
70
1
43
0.0
10
-32.70002619164849
20
15.717244320030922
10
-42.08479181664849
20
15.717244320030924
10
-42.08479181664849
20
20.717244320030925
10
-32.70002619164849
20
20.717244320030925
0
LWPOLYLINE
5
109
100
AcDbEntity
8
0
100
AcDbPolyline
90
4
70
1
43
0.0
10
-6.9396614421385028
20
34.325882776801315
10
-16.285364567138501
20
34.325882776801322
10
-16.285364567138501
20
39.325882776801322
10
-6.9396614421385019
20
39.325882776801322
0
LWPOLYLINE
5
110
100
AcDbEntity
8
0
100
AcDbPolyline
90
4
70
1
43
0.0
10
-35.155153764794974
20
-11.955990003425816
10
-41.656618608544974
20
-11.955990003425814
10
-41.656618608544974
20
-6.9559900034258195
10
-35.155153764794974
20
-6.9559900034258204
0
LWPOLYLINE
5
111
100
AcDbEntity
8
0
100
AcDbPolyline
90
4
70
1
43
0.0
10
-11.801639839493392
20
-33.041762883663878
10
-21.12292890199339
20
-33.041762883663878
10
-21.12292890199339
20
-28.041762883663885
10
-11.801639839493392
20
-28.041762883663885
0
LWPOLYLINE
5
112
100
AcDbEntity
8
0
100
AcDbPolyline
90
4
70
1
43
0.0
10
15.409502458131046
20
-32.86113071749137
10
6.1272758956310449
20
-32.86113071749137
10
6.1272758956310449
20
-27.86113071749137
10
15.409502458131046
20
-27.86113071749137
0
LWPOLYLINE
5
113
100
AcDbEntity
8
0
100
AcDbPolyline
90
4
70
1
43
0.0
10
37.543355849953642
20
-18.818964112497721
10
27.067281631203638
20
-18.818964112497721
10
27.067281631203638
20
-13.818964112497722
10
37.543355849953642
20
-13.818964112497722
0
LWPOLYLINE
5
114
100
AcDbEntity
8
0
100
AcDbPolyline
90
4
70
1
43
0.0
10
39.392964416983205
20
6.7071844299173966
10
30.110737854483208
20
6.7071844299173993
10
30.110737854483208
20
11.707184429917394
10
39.392964416983205
20
11.707184429917392
0
LWPOLYLINE
5
115
100
AcDbEntity
8
0
100
AcDbPolyline
90
4
70
1
43
0.0
10
27.268118096313923
20
31.461412224549168
10
17.953117919884175
20
31.461412224549168
10
17.953117919884175
20
36.461412224549157
10
27.268118096313923
20
36.461412224549157
0
ENDSEC
0
SECTION
2
OBJECTS
0
DICTIONARY
5
C
100
AcDbDictionary
3
ACAD_GROUP
350
D
3
ACAD_MLINESTYLE
350
17
0
DICTIONARY
5
D
100
AcDbDictionary
0
DICTIONARY
5
1A
330
C
100
AcDbDictionary
0
DICTIONARY
5
17
100
AcDbDictionary
0
ENDSEC
0
EOF
