<?xml version="1.0" encoding="UTF-8" standalone="no"?>
<!-- Created with Inkscape (http://www.inkscape.org/) -->

<svg
   xmlns:dc="http://purl.org/dc/elements/1.1/"
   xmlns:cc="http://creativecommons.org/ns#"
   xmlns:rdf="http://www.w3.org/1999/02/22-rdf-syntax-ns#"
   xmlns:svg="http://www.w3.org/2000/svg"
   xmlns="http://www.w3.org/2000/svg"
   xmlns:sodipodi="http://sodipodi.sourceforge.net/DTD/sodipodi-0.dtd"
   xmlns:inkscape="http://www.inkscape.org/namespaces/inkscape"
   width="210mm"
   height="297mm"
   viewBox="0 0 210 297"
   version="1.1"
   id="svg8"
   inkscape:version="0.92.4 (5da689c313, 2019-01-14)"
   sodipodi:docname="logodesign.svg"
   inkscape:export-filename="C:\Users\dhruv\Desktop\Fablab\dhruv-prakashbhaipatel\assignments\images\week3\inkscape\logodesign.png"
   inkscape:export-xdpi="96"
   inkscape:export-ydpi="96">
  <defs
     id="defs2" />
  <sodipodi:namedview
     id="base"
     pagecolor="#ffffff"
     bordercolor="#666666"
     borderopacity="1.0"
     inkscape:pageopacity="0.0"
     inkscape:pageshadow="2"
     inkscape:zoom="1"
     inkscape:cx="378.03207"
     inkscape:cy="941.20042"
     inkscape:document-units="mm"
     inkscape:current-layer="layer1"
     showgrid="false"
     inkscape:snap-text-baseline="true"
     inkscape:window-width="1366"
     inkscape:window-height="745"
     inkscape:window-x="-8"
     inkscape:window-y="-8"
     inkscape:window-maximized="1" />
  <metadata
     id="metadata5">
    <rdf:RDF>
      <cc:Work
         rdf:about="">
        <dc:format>image/svg+xml</dc:format>
        <dc:type
           rdf:resource="http://purl.org/dc/dcmitype/StillImage" />
        <dc:title></dc:title>
      </cc:Work>
    </rdf:RDF>
  </metadata>
  <g
     inkscape:label="Layer 1"
     inkscape:groupmode="layer"
     id="layer1">
    <path
       style="opacity:1;fill:#ff0000;stroke:#000000;stroke-width:0.8;stroke-linecap:butt;stroke-linejoin:miter;stroke-miterlimit:4;stroke-dasharray:none;stroke-opacity:1"
       d="m 143.67631,22.290442 -30.78497,1.094621 21.12991,35.615001 z"
       id="path1190"
       inkscape:connector-curvature="0" />
    <path
       style="opacity:1;fill:#ff0000;stroke:#000000;stroke-width:1;stroke-linecap:butt;stroke-linejoin:miter;stroke-miterlimit:4;stroke-dasharray:none;stroke-opacity:1"
       d="M 51.849825,84.900213 73.060735,89.212366 62.876908,68.692765 Z"
       id="path1186"
       inkscape:connector-curvature="0" />
    <path
       style="color:#000000;font-style:normal;font-variant:normal;font-weight:normal;font-stretch:normal;font-size:medium;line-height:normal;font-family:sans-serif;font-variant-ligatures:normal;font-variant-position:normal;font-variant-caps:normal;font-variant-numeric:normal;font-variant-alternates:normal;font-feature-settings:normal;text-indent:0;text-align:start;text-decoration:none;text-decoration-line:none;text-decoration-style:solid;text-decoration-color:#000000;letter-spacing:normal;word-spacing:normal;text-transform:none;writing-mode:lr-tb;direction:ltr;text-orientation:mixed;dominant-baseline:auto;baseline-shift:baseline;text-anchor:start;white-space:normal;shape-padding:0;clip-rule:nonzero;display:inline;overflow:visible;visibility:visible;opacity:1;isolation:auto;mix-blend-mode:normal;color-interpolation:sRGB;color-interpolation-filters:linearRGB;solid-color:#000000;solid-opacity:1;vector-effect:none;fill:#1a1a1a;fill-opacity:1;fill-rule:nonzero;stroke:none;stroke-width:18.89763832;stroke-linecap:butt;stroke-linejoin:miter;stroke-miterlimit:4;stroke-dasharray:none;stroke-dashoffset:0;stroke-opacity:1;color-rendering:auto;image-rendering:auto;shape-rendering:auto;text-rendering:auto;enable-background:accumulate"
       d="M 372.36523 20.953125 L 367.63867 23.689453 L 362.91992 26.417969 L 216.97461 110.67773 L 216.97461 263.25391 C 216.97156 263.31593 216.96711 263.38931 216.96484 263.43164 C 216.96463 263.4358 216.96504 263.44506 216.96484 263.44922 L 216.9375 263.84766 L 216.9375 264.39062 C 216.93767 350.02644 286.73523 419.82336 372.37109 419.82227 C 458.00611 419.82211 527.8045 350.02574 527.80469 264.39062 L 527.80469 264.25 L 527.80469 263.98438 L 527.80078 263.86914 C 527.79322 263.52713 527.7827 263.21615 527.76758 262.91016 L 527.76758 110.67773 L 447.2832 64.203125 L 372.36523 20.953125 z "
       id="path1101"
       transform="scale(0.26458333)" />
    <path
       style="color:#000000;font-style:normal;font-variant:normal;font-weight:normal;font-stretch:normal;font-size:medium;line-height:normal;font-family:sans-serif;font-variant-ligatures:normal;font-variant-position:normal;font-variant-caps:normal;font-variant-numeric:normal;font-variant-alternates:normal;font-feature-settings:normal;text-indent:0;text-align:start;text-decoration:none;text-decoration-line:none;text-decoration-style:solid;text-decoration-color:#000000;letter-spacing:normal;word-spacing:normal;text-transform:none;writing-mode:lr-tb;direction:ltr;text-orientation:mixed;dominant-baseline:auto;baseline-shift:baseline;text-anchor:start;white-space:normal;shape-padding:0;clip-rule:nonzero;display:inline;overflow:visible;visibility:visible;opacity:1;isolation:auto;mix-blend-mode:normal;color-interpolation:sRGB;color-interpolation-filters:linearRGB;solid-color:#000000;solid-opacity:1;vector-effect:none;fill:#ff2a2a;fill-opacity:1;fill-rule:nonzero;stroke:none;stroke-width:18.89763832;stroke-linecap:butt;stroke-linejoin:miter;stroke-miterlimit:4;stroke-dasharray:none;stroke-dashoffset:0;stroke-opacity:1;color-rendering:auto;image-rendering:auto;shape-rendering:auto;text-rendering:auto;enable-background:accumulate"
       d="M 372.37109 31.867188 L 367.64844 34.599609 L 226.42383 116.13281 L 226.42383 263.48828 C 226.41665 263.63338 226.40801 263.81122 226.40234 263.92383 L 226.38672 264.16016 L 226.38672 264.39062 C 226.38688 344.90416 291.85752 410.37407 372.37109 410.37305 C 452.88386 410.3729 518.35528 344.90335 518.35547 264.39062 L 518.35547 264.25 L 518.35547 264.10156 C 518.34791 263.79531 518.33348 263.44048 518.31836 263.07617 L 518.31836 116.13281 L 442.55859 72.386719 L 372.37109 31.867188 z "
       id="path1090"
       transform="scale(0.26458333)" />
    <path
       style="opacity:1;fill:#000000;fill-opacity:1;stroke-width:0.2335853"
       d="M 98.523469,11.318442 62.40836,32.169365 v 37.577032 0.0011 c -0.0037,0.06872 -0.0071,0.137451 -0.01035,0.206189 4e-5,19.95143 16.174009,36.125184 36.125449,36.124934 19.951231,-4e-5 36.124861,-16.173705 36.124901,-36.124934 -0.003,-0.09734 -0.006,-0.194661 -0.0103,-0.291973 V 32.169389 L 115.84227,21.317853 Z"
       id="path1046"
       inkscape:connector-curvature="0" />
    <path
       style="opacity:1;fill:#ff5555;fill-opacity:1;stroke-width:0.2335853"
       d="m 98.523935,11.471406 c -0.80723,0.0016 -1.61418,0.03017 -2.41949,0.08578 0.80531,-0.05562 1.61226,-0.08423 2.41949,-0.08578 z"
       id="path1044" />
    <path
       style="opacity:1;fill:#ff5555;fill-opacity:1;stroke-width:0.2335853"
       d="m 94.101975,11.788184 c -0.53329,0.05275 -1.06534,0.117362 -1.59576,0.193786 0.53042,-0.07642 1.06247,-0.141035 1.59576,-0.193786 z"
       id="path1042" />
    <path
       style="opacity:1;fill:#ff5555;fill-opacity:1;stroke-width:0.2335853"
       d="m 90.401945,12.44189 c -0.47284,0.09632 -0.94371,0.202107 -1.41232,0.317294 0.46861,-0.115187 0.93948,-0.220973 1.41232,-0.317294 z"
       id="path1040" />
    <path
       style="opacity:1;fill:#ff5555;fill-opacity:1;stroke-width:0.2335853"
       d="m 86.806305,13.470767 c -0.41569,0.129805 -0.829,0.267113 -1.23972,0.411861 0.41072,-0.144748 0.82403,-0.282056 1.23972,-0.411861 z"
       id="path1038" />
    <path
       style="opacity:1;fill:#ff5555;fill-opacity:1;stroke-width:0.2335853"
       d="m 83.276805,14.891868 c -0.33521,0.143777 -0.66821,0.292621 -0.99891,0.446484 0.3307,-0.153863 0.6637,-0.302707 0.99891,-0.446484 z"
       id="path1036" />
    <path
       style="opacity:1;fill:#ff5555;fill-opacity:1;stroke-width:0.2335853"
       d="m 79.956075,16.653003 c -0.27243,0.151522 -0.5429,0.306565 -0.81132,0.465088 0.26842,-0.158523 0.53889,-0.313566 0.81132,-0.465088 z"
       id="path1034" />
    <path
       style="opacity:1;fill:#ff5555;fill-opacity:1;stroke-width:0.2335853"
       d="m 76.821895,18.759851 c -0.20633,0.14427 -0.41115,0.290695 -0.61443,0.439248 0.20328,-0.148553 0.4081,-0.294978 0.61443,-0.439248 z"
       id="path1032" />
    <path
       style="opacity:1;fill:#ff5555;fill-opacity:1;stroke-width:0.2335853"
       d="m 73.978145,21.134384 c -0.16494,0.142348 -0.32859,0.286186 -0.49092,0.431495 0.16233,-0.145309 0.32598,-0.289147 0.49092,-0.431495 z"
       id="path1030" />
    <path
       style="opacity:1;fill:#ff5555;fill-opacity:1;stroke-width:0.2335853"
       d="m 71.327145,23.858248 c -0.10265,0.108746 -0.20463,0.21813 -0.30593,0.328144 0.1013,-0.110014 0.20328,-0.219398 0.30593,-0.328144 z"
       id="path1028" />
    <path
       style="opacity:1;fill:#ff5555;fill-opacity:1;stroke-width:0.22286594"
       d="m 68.325104,26.069679 c -0.08665,0.106641 -0.172607,0.21386 -0.257864,0.321654 0.08526,-0.107793 0.171214,-0.215013 0.257864,-0.321654 z"
       id="path1026"
       inkscape:connector-curvature="0" />
    <path
       style="opacity:1;fill:#ff5555;fill-opacity:1;stroke-width:0.22286594"
       d="m 68.600724,28.629348 c -0.04265,0.06622 -0.08505,0.132604 -0.127206,0.199155 0.04215,-0.06656 0.08456,-0.132937 0.127206,-0.199155 z"
       id="path1024"
       inkscape:connector-curvature="0" />
    <path
       style="opacity:1;fill:#ff5555;fill-opacity:1;stroke-width:0.18839177"
       d="m 71.925239,58.344872 c -0.02277,0.05399 -0.0454,0.108009 -0.06793,0.162045 0.02251,-0.05403 0.04516,-0.108051 0.06793,-0.162045 z"
       id="path1022"
       inkscape:connector-curvature="0" />
    <path
       style="opacity:1;fill:#ff5555;fill-opacity:1;stroke-width:0.18839177"
       d="m 70.894954,61.403124 c -0.01708,0.05194 -0.03403,0.103852 -0.05086,0.155789 0.01684,-0.05194 0.03379,-0.103865 0.05086,-0.155789 z"
       id="path1020"
       inkscape:connector-curvature="0" />
    <path
       style="opacity:1;fill:#ff5555;fill-opacity:1;stroke-width:0.18839177"
       d="m 70.125157,64.538202 c -0.0053,0.0225 -0.01058,0.04503 -0.01584,0.06757 0.0053,-0.02253 0.01054,-0.04502 0.01584,-0.06757 z"
       id="path1018"
       inkscape:connector-curvature="0" />
    <path
       style="opacity:1;fill:#ff5555;fill-opacity:1;stroke-width:0.18839177"
       d="m 69.668781,67.549482 c -0.0037,0.02576 -0.0076,0.05159 -0.01124,0.07735 0.0036,-0.02575 0.0076,-0.0516 0.01124,-0.07735 z"
       id="path909"
       inkscape:connector-curvature="0" />
    <path
       style="opacity:1;fill:#784421;fill-opacity:1;stroke-width:0.2335853"
       d="m 98.523986,22.31932 c -0.80723,0.0016 -1.61418,0.03017 -2.41949,0.08578 0.80531,-0.05562 1.61226,-0.08423 2.41949,-0.08578 z"
       id="path1076" />
    <path
       style="opacity:1;fill:#784421;fill-opacity:1;stroke-width:0.2335853"
       d="m 94.102025,22.636098 c -0.533289,0.05275 -1.065339,0.117362 -1.59576,0.193786 0.53042,-0.07642 1.06247,-0.141035 1.59576,-0.193786 z"
       id="path1074" />
    <path
       style="opacity:1;fill:#784421;fill-opacity:1;stroke-width:0.2335853"
       d="m 90.401995,23.289804 c -0.472839,0.09632 -0.94371,0.202107 -1.412319,0.317294 0.46861,-0.115187 0.93948,-0.220973 1.412319,-0.317294 z"
       id="path1072" />
    <path
       style="opacity:1;fill:#784421;fill-opacity:1;stroke-width:0.2335853"
       d="m 86.806355,24.318681 c -0.41569,0.129805 -0.829,0.267113 -1.23972,0.411861 0.41072,-0.144748 0.82403,-0.282056 1.23972,-0.411861 z"
       id="path1070" />
    <path
       style="opacity:1;fill:#784421;fill-opacity:1;stroke-width:0.22286594"
       d="m 81.859861,26.053459 c -0.319827,0.116008 -0.637545,0.23699 -0.953069,0.362907 0.315524,-0.125917 0.633242,-0.246899 0.953069,-0.362907 z"
       id="path1068"
       inkscape:connector-curvature="0" />
    <path
       style="opacity:1;fill:#784421;fill-opacity:1;stroke-width:0.22286594"
       d="m 78.691522,27.524048 c -0.259928,0.127363 -0.517986,0.258208 -0.774088,0.392504 0.256102,-0.134296 0.51416,-0.265141 0.774088,-0.392504 z"
       id="path1066"
       inkscape:connector-curvature="0" />
    <path
       style="opacity:1;fill:#784421;fill-opacity:1;stroke-width:0.22286594"
       d="m 80.034102,24.212383 c -0.196862,0.124618 -0.392282,0.251388 -0.586234,0.380285 0.193952,-0.128897 0.389372,-0.255667 0.586234,-0.380285 z"
       id="path1064"
       inkscape:connector-curvature="0" />
    <path
       style="opacity:1;fill:#784421;fill-opacity:1;stroke-width:0.22286594"
       d="m 75.204185,26.298345 c -0.157371,0.125398 -0.313511,0.2523 -0.468391,0.380688 0.15488,-0.128388 0.31102,-0.25529 0.468391,-0.380688 z"
       id="path1062"
       inkscape:connector-curvature="0" />
    <path
       style="opacity:1;fill:#784421;fill-opacity:1;stroke-width:0.18839177"
       d="m 76.688681,44.408511 c -0.08279,0.114024 -0.16504,0.22839 -0.246739,0.343087 0.0817,-0.114698 0.163949,-0.229062 0.246739,-0.343087 z"
       id="path1060"
       inkscape:connector-curvature="0" />
    <path
       style="opacity:1;fill:#784421;fill-opacity:1;stroke-width:0.18839177"
       d="m 74.885264,47.27032 c -0.07324,0.118273 -0.145907,0.236818 -0.217978,0.355616 0.07211,-0.118812 0.14473,-0.237341 0.217978,-0.355616 z"
       id="path1058"
       inkscape:connector-curvature="0" />
    <path
       style="opacity:1;fill:#784421;fill-opacity:1;stroke-width:0.18839177"
       d="m 73.244813,50.369567 c -0.03606,0.06984 -0.07185,0.139695 -0.107533,0.209649 0.03566,-0.06995 0.07146,-0.139818 0.107533,-0.209649 z"
       id="path1056"
       inkscape:connector-curvature="0" />
    <path
       style="opacity:1;fill:#784421;fill-opacity:1;stroke-width:0.18839177"
       d="m 71.925279,67.093942 c -0.02274,0.05397 -0.04541,0.108011 -0.06792,0.162043 0.0225,-0.05402 0.04517,-0.108052 0.06792,-0.162043 z"
       id="path1054"
       inkscape:connector-curvature="0" />
    <path
       style="opacity:1;fill:#784421;fill-opacity:1;stroke-width:0.18839177"
       d="m 70.894994,70.152197 c -0.0171,0.05196 -0.03404,0.103853 -0.05089,0.155798 0.01685,-0.05195 0.0338,-0.103865 0.05089,-0.155798 z"
       id="path1052"
       inkscape:connector-curvature="0" />
    <path
       style="opacity:1;fill:#784421;fill-opacity:1;stroke-width:0.18839177"
       d="m 70.1252,73.287277 c -0.0057,0.02262 -0.01057,0.04503 -0.01581,0.06753 0.0057,-0.02266 0.01056,-0.04504 0.01581,-0.06753 z"
       id="path1050"
       inkscape:connector-curvature="0" />
    <path
       style="opacity:1;fill:#784421;fill-opacity:1;stroke-width:0.18839177"
       d="m 69.668822,76.298556 c -0.004,0.02588 -0.0073,0.05147 -0.01121,0.07735 0.004,-0.02589 0.0073,-0.05149 0.01121,-0.07735 z"
       id="path944"
       inkscape:connector-curvature="0" />
    <path
       style="color:#000000;font-style:normal;font-variant:normal;font-weight:normal;font-stretch:normal;font-size:medium;line-height:normal;font-family:sans-serif;font-variant-ligatures:normal;font-variant-position:normal;font-variant-caps:normal;font-variant-numeric:normal;font-variant-alternates:normal;font-feature-settings:normal;text-indent:0;text-align:start;text-decoration:none;text-decoration-line:none;text-decoration-style:solid;text-decoration-color:#000000;letter-spacing:normal;word-spacing:normal;text-transform:none;writing-mode:lr-tb;direction:ltr;text-orientation:mixed;dominant-baseline:auto;baseline-shift:baseline;text-anchor:start;white-space:normal;shape-padding:0;clip-rule:nonzero;display:inline;overflow:visible;visibility:visible;opacity:1;isolation:auto;mix-blend-mode:normal;color-interpolation:sRGB;color-interpolation-filters:linearRGB;solid-color:#000000;solid-opacity:1;vector-effect:none;fill:#ff0000;fill-opacity:1;fill-rule:nonzero;stroke:#000000;stroke-width:1;stroke-linecap:butt;stroke-linejoin:round;stroke-miterlimit:4;stroke-dasharray:none;stroke-dashoffset:0;stroke-opacity:1;color-rendering:auto;image-rendering:auto;shape-rendering:auto;text-rendering:auto;enable-background:accumulate"
       d="m 53.651276,50.592859 a 2.9265009,4.016283 40.484577 0 0 -3.428169,4.517891 v 27.436626 a 2.9265009,4.016283 40.484577 0 0 3.428169,2.336915 L 142.53644,56.630116 a 2.9265009,4.016283 40.484577 0 0 3.42817,-4.516356 V 24.677136 a 2.9265009,4.016283 40.484577 0 0 -3.42817,-2.338451 z"
       id="path1181"
       inkscape:connector-curvature="0" />
    <rect
       style="opacity:1;fill:#ffeeaa;fill-opacity:1;stroke:#000000;stroke-width:0;stroke-miterlimit:4;stroke-dasharray:none;stroke-linejoin:round"
       id="rect1109"
       width="93.268234"
       height="27.43664"
       x="56.296604"
       y="71.074623"
       transform="matrix(0.95301086,-0.30293612,0,1,0,0)" />
    <text
       xml:space="preserve"
       style="font-style:normal;font-variant:normal;font-weight:normal;font-stretch:normal;font-size:24.82923698px;line-height:1.25;font-family:GothicI;-inkscape-font-specification:'GothicI, Normal';font-variant-ligatures:normal;font-variant-caps:normal;font-variant-numeric:normal;font-feature-settings:normal;text-align:start;letter-spacing:0px;word-spacing:0px;writing-mode:lr-tb;text-anchor:start;opacity:1;fill:#000000;fill-opacity:1;stroke:none;stroke-width:1.67131138"
       x="54.594406"
       y="91.807144"
       id="text1106"
       transform="skewY(-17.634039)"><tspan
         sodipodi:role="line"
         id="tspan1104"
         x="54.594406"
         y="91.807144"
         style="font-style:normal;font-variant:normal;font-weight:normal;font-stretch:normal;font-size:24.82923698px;font-family:GothicI;-inkscape-font-specification:'GothicI, Normal';font-variant-ligatures:normal;font-variant-caps:normal;font-variant-numeric:normal;font-feature-settings:normal;text-align:start;writing-mode:lr-tb;text-anchor:start;stroke-width:1.67131138">sheriff </tspan></text>
    <g
       aria-label="The Protector"
       style="font-style:normal;font-variant:normal;font-weight:normal;font-stretch:normal;font-size:8.8194437px;line-height:1.25;font-family:GothicG;-inkscape-font-specification:'GothicG, Normal';font-variant-ligatures:normal;font-variant-caps:normal;font-variant-numeric:normal;font-feature-settings:normal;text-align:start;letter-spacing:0.37570834px;word-spacing:0px;writing-mode:lr-tb;text-anchor:start;opacity:1;fill:#e3dbdb;fill-opacity:1;stroke:none;stroke-width:0.26458332"
       id="text1235"
       transform="translate(0,-3.1750001)">
      <path
         d="m 79.26591,93.781182 -0.01828,0.0061 -0.685559,0.220991 -0.480207,-0.48203 -0.420858,-1.270591 -1.230191,-0.0084 -0.40576,0.404226 -0.437918,1.305504 -0.463726,0.461972 -0.658159,0.224089 -0.499389,-9.47e-4 -0.461972,-0.463725 0.333018,1.023774 0.427732,0.856474 0.635211,0.637623 1.074508,0.212145 -0.01855,0.146128 -0.892184,-0.01082 -0.897444,-0.449325 -0.665604,-0.668131 -0.439843,-0.893038 -0.227128,-0.66121 -0.423862,-1.291912 -0.188436,-0.189152 -0.374548,0.0023 -0.399658,0.398147 -6.35e-4,0.334956 0.298416,5.65e-4 -0.0054,-0.365418 0.149214,-0.0028 -0.007,0.505468 -0.56942,-0.0041 -0.002,-0.532891 0.469827,-0.46805 0.709942,-0.233126 0.474129,0.475929 0.439843,0.893038 0.08176,0.240716 0.007,-0.468928 0.454573,-0.452854 0.100296,0.100677 -0.417963,0.416383 -0.0038,0.374536 0.398146,0.399659 0.377587,7.15e-4 0.40576,-0.404226 0.43793,-1.311594 0.460674,-0.458933 0.682532,-0.230132 1.208882,0.0053 -0.379196,-0.75894 -1.285619,-1.2905 -0.6208,-0.20824 -0.597212,0.199843 -0.202104,0.59645 0.214993,0.636827 -0.140142,0.03628 -0.221014,-0.673379 0.229689,-0.690795 0.463725,-0.461972 0.697763,-0.233148 0.909601,0.461528 1.103262,1.10745 0.445921,0.89914 0.213332,1.513803 0.401187,0.402709 0.374547,-0.0023 0.399659,-0.398147 6.34e-4,-0.334956 -0.298416,-5.65e-4 0.0054,0.365418 -0.152253,-2.88e-4 0.007,-0.505468 0.57551,0.0041 -0.001,0.53593 z"
         style="letter-spacing:0.37570834px;stroke-width:0.26458332;fill:#e3dbdb"
         id="path1241"
         inkscape:connector-curvature="0" />
      <path
         d="m 80.630522,99.856597 -0.790602,0.602663 -0.612551,0.34879 -0.878242,0.15748 -1.123862,-0.01 0.0109,-0.13845 1.095233,0.006 1.006004,-0.39871 0.932602,-0.834194 0.511355,-0.751099 0.257329,-0.913623 0.01141,-1.049792 -1.262087,-0.166358 -1.34988,1.982759 0.06689,0.368535 0.213583,0.145409 0.396178,-0.08453 0.0284,0.14958 -1.354474,0.244821 -0.09688,-0.47752 -0.377948,-0.6845 0.497741,-0.08832 2.232029,-3.278494 0.08284,-0.657324 -0.07954,-0.418824 0.14958,-0.02841 0.08408,0.442756 -0.08064,0.554625 0.486451,-0.278348 0.890209,-0.159755 0.951795,0.262478 -0.02529,0.14428 -0.673987,-0.08897 -0.40201,0.07014 -0.752128,0.576759 -0.79975,1.174705 2.013553,0.271611 -0.100557,0.759872 -0.452494,1.207944 z"
         style="letter-spacing:0.37570834px;stroke-width:0.26458332;fill:#e3dbdb"
         id="path1243"
         inkscape:connector-curvature="0" />
      <path
         d="m 85.468138,100.26638 -2.238474,0.29141 -0.112587,0.22777 0.0088,0.66246 0.259649,0.76724 0.629761,-9.5e-4 0.0064,0.14249 -1.436708,7.9e-4 -0.298695,-0.88262 -0.0013,-0.71642 0.700325,-1.416806 0.577725,-0.430188 1.602902,-0.298135 z m -0.820569,-0.0309 -0.153228,-1.079721 -0.204606,-0.101137 -0.504773,0.379781 -0.480877,0.972847 z"
         style="letter-spacing:0.37570834px;stroke-width:0.26458332;fill:#e3dbdb"
         id="path1245"
         inkscape:connector-curvature="0" />
      <path
         d="m 98.769393,103.40911 -0.399274,0.91932 -0.710786,0.8737 -0.333359,0.28966 -0.738457,0.60741 -0.570744,-1.04646 -0.16764,-0.20119 -0.125596,1.38095 -0.380937,0.62263 -0.681521,0.26665 -0.964951,-0.0878 -0.319687,-0.38366 0.06085,-0.66903 0.411337,-0.33879 0.36686,0.43551 -0.384435,0.32827 -0.09357,-0.11229 0.285012,-0.23353 -0.191032,-0.22926 -0.25733,0.21443 -0.05149,0.5661 0.237816,0.2854 0.561815,0.0511 0.300218,-0.25809 0.349355,-0.56063 0.131446,-1.44528 -0.527506,-0.048 -1.035538,0.4031 1.015281,-0.846 0.614071,-0.2382 0.302677,-3.328 -0.214398,-0.923249 -0.249902,-0.29515 -0.8706,-0.07918 -0.622269,0.518516 -0.05188,0.570393 0.522402,0.95991 0.260025,0.65929 -0.08971,0.9864 -0.695168,0.27406 -0.660455,-0.0601 -0.319687,-0.38365 0.03042,-0.33452 0.141526,0.0129 -0.02535,0.27876 0.237426,0.28969 0.561815,0.0511 0.290081,-0.24171 0.05188,-0.5704 -0.526691,-0.96029 -0.255735,-0.65891 0.05929,-0.65188 0.380547,-0.618334 0.672944,-0.267432 0.973528,0.08854 0.605859,0.375088 0.296685,0.351294 0.21987,0.577814 1.63832,-1.087705 0.570354,1.050755 0.260414,0.65501 0.191382,1.2714 z m -0.472155,0.24678 0.0823,-0.90491 -0.218687,-0.92364 -0.521622,-0.96848 -0.581675,-0.68855 -0.832806,0.55126 -0.300336,3.30227 0.564533,0.35403 0.645989,1.07493 0.421085,-0.35088 0.358712,-0.56843 z"
         style="letter-spacing:0.37570834px;stroke-width:0.26458332;fill:#e3dbdb"
         id="path1247"
         inkscape:connector-curvature="0" />
      <path
         d="m 103.47122,102.05381 -0.7116,0.43845 -0.36641,-0.58858 -0.48191,0.30453 0.2516,2.69268 0.28639,0.24139 0.25298,-0.0236 0.25574,-0.31801 0.11292,0.0976 -0.88356,1.05139 -0.38324,-0.30588 -0.72746,-0.28669 0.32731,-0.38524 -0.22476,-2.4054 -0.28599,-0.23711 -0.25297,0.0236 -0.25615,0.31372 -0.1168,-0.0929 0.88745,-1.05608 0.68838,0.56282 1.18963,-0.7383 z"
         style="letter-spacing:0.37570834px;stroke-width:0.26458332;fill:#e3dbdb"
         id="path1249"
         inkscape:connector-curvature="0" />
      <path
         d="m 108.50952,102.79819 -0.0837,0.99878 -0.23992,0.40297 -0.54845,0.44597 -0.86689,0.54005 -0.40196,-0.23572 -0.643,-0.15135 -0.44389,0.10647 0.29822,-0.49224 -0.57953,-2.41624 1.39038,-0.99776 0.88782,-0.54508 0.48432,0.57911 0.52566,0.84377 z m -0.44053,0.0835 -0.13961,-0.58208 -0.50305,-0.8049 -0.73006,-0.44046 0.07,-0.11422 -0.28997,0.17583 -0.5595,0.3999 0.0519,0.0318 -0.21528,0.33948 0.55944,2.3325 0.642,0.14716 0.38421,0.23555 -0.0742,0.11523 0.28578,-0.17483 0.43509,-0.71549 z"
         style="letter-spacing:0.37570834px;stroke-width:0.26458332;fill:#e3dbdb"
         id="path1251"
         inkscape:connector-curvature="0" />
      <path
         d="m 111.82468,99.978044 -0.86332,0.334536 0.8558,2.20849 0.34142,0.15404 0.23691,-0.0918 0.15921,-0.37575 0.13527,0.063 -0.56296,1.25267 -0.45219,-0.18962 -0.77809,-0.0772 0.2097,-0.45997 -0.8558,-2.20848 -1.07613,0.417 0.65486,-0.72945 0.16478,-0.373289 0.0713,-0.674193 -0.0672,-1.401036 0.79978,2.063932 0.86332,-0.33454 z"
         style="letter-spacing:0.37570834px;stroke-width:0.26458332;fill:#e3dbdb"
         id="path1253"
         inkscape:connector-curvature="0" />
      <path
         d="m 115.4859,98.386396 -1.07337,1.985834 0.11884,0.22457 0.54239,0.38046 0.77413,0.23834 0.36769,-0.51128 0.11932,0.0782 -0.83996,1.16559 -0.89054,-0.27417 -0.58179,-0.41808 -0.73923,-1.396892 -0.0108,-0.720216 0.69605,-1.474341 z m -0.50517,0.647369 -0.96528,-0.507468 -0.20173,0.106756 0.0127,0.631561 0.50759,0.959176 z"
         style="letter-spacing:0.37570834px;stroke-width:0.26458332;fill:#e3dbdb"
         id="path1255"
         inkscape:connector-curvature="0" />
      <path
         d="m 118.45098,95.627603 -0.40978,0.746107 -0.85248,-0.162859 -0.14132,0.355111 0.0942,-0.0078 0.0939,0.663588 0.85993,1.237848 0.58417,0.312545 0.79715,0.14361 0.30361,-0.551743 0.12784,0.06325 -0.69385,1.258055 -0.91703,-0.165206 -0.6278,-0.345157 -0.90169,-1.297973 -0.0973,-0.713696 0.41091,-1.061501 0.36254,-0.655607 z"
         style="letter-spacing:0.37570834px;stroke-width:0.26458332;fill:#e3dbdb"
         id="path1257"
         inkscape:connector-curvature="0" />
      <path
         d="m 121.3829,93.561896 -0.69498,0.611748 1.56493,1.777859 0.37359,0.02685 0.19072,-0.167875 0.0199,-0.4076 0.14871,0.01252 -0.0964,1.369965 -0.48985,-0.02205 -0.75698,0.195883 0.0382,-0.504071 -1.56493,-1.777859 -0.8663,0.76255 0.36312,-0.910548 0.0259,-0.407213 -0.16561,-0.65741 -0.54627,-1.291904 1.46251,1.66149 0.69498,-0.611747 z"
         style="letter-spacing:0.37570834px;stroke-width:0.26458332;fill:#e3dbdb"
         id="path1259"
         inkscape:connector-curvature="0" />
      <path
         d="m 125.74121,90.95837 0.51164,0.861855 0.0386,0.467389 -0.18768,0.681518 -0.39233,0.942984 -0.46414,0.04141 -0.61142,0.250049 -0.29963,0.344375 -0.0429,-0.573921 -1.87457,-1.630981 0.55289,-1.619564 0.40647,-0.959228 0.73054,0.190377 0.91784,0.381874 z m -0.31022,0.323744 -0.45158,-0.392905 -0.87687,-0.363354 -0.85015,0.06518 -0.009,-0.133661 -0.13402,0.311502 -0.22342,0.650424 0.0608,-0.0042 0.0218,0.401403 1.8096,1.574448 0.60817,-0.252876 0.44958,-0.03124 0.006,0.13691 0.1312,-0.308253 -0.0611,-0.835167 z"
         style="letter-spacing:0.37570834px;stroke-width:0.26458332;fill:#e3dbdb"
         id="path1261"
         inkscape:connector-curvature="0" />
      <path
         d="m 126.83666,86.030017 -0.0951,0.830402 -0.68917,-0.07574 -0.0585,0.567065 2.27229,1.466462 0.36677,-0.07594 0.13778,-0.213479 -0.0919,-0.397596 0.1465,-0.02846 0.28042,1.344419 -0.47732,0.112224 -0.67499,0.394682 -0.10055,-0.495417 -2.02986,-1.310008 -0.36316,0.07827 -0.13777,0.213479 0.0883,0.39526 -0.14522,0.03441 -0.2817,-1.350373 0.86791,-0.193294 0.15487,-1.391515 z"
         style="letter-spacing:0.37570834px;stroke-width:0.26458332;fill:#e3dbdb"
         id="path1263"
         inkscape:connector-curvature="0" />
    </g>
    <path
       style="fill:#ffffff;stroke:none;stroke-width:1.03132784;stroke-miterlimit:4;stroke-dasharray:none;stroke-opacity:1"
       d="m 97.052347,90.601872 c 0.0804,-0.01483 0.27897,-0.05944 0.44136,-0.09931 l 0.29519,-0.07253 0.005,-0.06091 c 0.0118,-0.135677 -0.12539,-0.215801 -0.54171,-0.316838 -0.48101,-0.116763 -0.63803,-0.192561 -0.68333,-0.329827 -0.0399,-0.121183 0.0485,-0.283395 0.1955,-0.358406 0.1152,-0.05876 0.21583,-0.08144 0.60146,-0.135464 0.50878,-0.07126 0.58269,-0.09552 0.87288,-0.286481 0.16655,-0.109598 0.25675,-0.194499 0.30302,-0.285181 0.0733,-0.143847 0.0353,-0.237979 -0.15916,-0.392888 -0.18105,-0.144209 -0.25249,-0.21704 -0.26606,-0.271262 -0.0221,-0.08754 0.004,-0.09005 0.30773,-0.03072 0.68364,0.133287 1.20789,0.115367 1.692313,-0.05776 0.0715,-0.02543 0.28367,-0.120698 0.47174,-0.211532 l 0.34195,-0.165148 0.0757,0.02875 c 0.12854,0.04912 0.27898,0.149867 0.50847,0.34062 0.24116,0.200459 1.00911,0.773338 1.64905,1.230141 0.51482,0.367521 0.63027,0.473247 0.81449,0.74588 0.21261,0.31464 0.3552,0.455092 0.50766,0.500045 0.10849,0.03199 0.3736,0.0466 0.55037,0.03028 0.47048,-0.0433 0.8273,-0.222124 0.9387,-0.470457 0.0585,-0.130715 0.0687,-0.219552 0.0369,-0.328789 -0.0715,-0.245967 -0.2456,-0.364711 -0.89319,-0.609165 -0.41429,-0.156404 -0.62645,-0.25571 -0.77036,-0.360577 -0.0958,-0.06981 -0.40875,-0.412062 -0.6598,-0.721556 -0.22264,-0.274439 -0.37437,-0.540757 -0.43018,-0.754989 -0.0304,-0.117185 -0.0345,-0.358232 -0.008,-0.436616 0.0218,-0.06262 0.0332,-0.06436 0.17723,-0.02692 0.32958,0.08538 0.69511,0.112917 0.93719,0.07055 0.41266,-0.07222 0.6646,-0.316413 0.79266,-0.768272 0.0221,-0.07831 0.0451,-0.147025 0.0506,-0.152712 0.0182,-0.01815 0.10926,0.03964 0.17066,0.107936 0.0327,0.03628 0.1021,0.139581 0.15446,0.229507 0.15874,0.272746 0.3226,0.413918 0.99512,0.857344 0.47099,0.310548 0.59197,0.399991 0.75839,0.5607 0.17961,0.173439 0.37593,0.458224 0.43337,0.628645 0.0152,0.04479 0.0549,0.217616 0.0884,0.384115 0.0336,0.16648 0.0768,0.345177 0.0962,0.39709 0.10112,0.270235 0.40881,0.426776 0.83893,0.426776 0.40712,0 0.68644,-0.12908 0.80633,-0.372629 0.0486,-0.09873 0.054,-0.123695 0.0451,-0.209264 -0.0227,-0.221397 -0.13543,-0.358596 -0.63473,-0.773528 -0.35098,-0.291687 -0.38479,-0.327534 -0.9415,-0.998351 -0.28314,-0.341184 -0.39753,-0.532507 -0.77594,-1.29803 -0.30313,-0.613235 -0.35822,-0.737746 -0.44035,-0.995156 -0.2451,-0.767934 -0.34396,-1.005528 -0.51013,-1.225842 -0.0999,-0.13259 -0.24975,-0.264363 -0.39099,-0.344081 -0.10662,-0.06013 -0.10475,-0.045 -0.0305,-0.25456 0.0715,-0.201246 0.0947,-0.359965 0.0947,-0.645414 0,-0.33173 -0.0249,-0.495265 -0.18194,-1.207863 -0.17618,-0.798028 -0.18003,-0.82915 -0.1334,-1.084717 0.0687,-0.376225 0.0812,-0.512536 0.0805,-0.87964 -5e-4,-0.300793 -0.008,-0.398806 -0.0391,-0.568528 -0.0703,-0.374685 -0.22498,-0.780183 -0.41205,-1.080354 -0.0734,-0.117824 -0.0776,-0.130381 -0.0578,-0.177976 0.0385,-0.09295 0.21287,-0.231867 0.48719,-0.388141 0.39663,-0.225936 0.46429,-0.291171 0.46429,-0.447506 0,-0.178612 -0.10871,-0.204149 -0.43267,-0.101643 -0.119,0.03767 -0.24602,0.07383 -0.28234,0.0803 -0.0764,0.01361 -0.18495,-0.01635 -0.18495,-0.05111 0,-0.01302 0.0682,-0.07035 0.15147,-0.127385 0.17325,-0.118673 0.38836,-0.308325 0.54206,-0.477928 0.76941,-0.849021 0.93682,-2.058855 0.35703,-2.580142 -0.0898,-0.0806 -0.28905,-0.194316 -0.28905,-0.164845 0,0.0088 0.019,0.08875 0.0425,0.177645 0.0703,0.267661 0.0996,0.476217 0.10013,0.715457 4.8e-4,0.263214 -0.0278,0.401971 -0.12237,0.597092 -0.0725,0.149534 -0.25655,0.347563 -0.42701,0.459393 -0.16022,0.10512 -0.7561,0.408565 -0.80562,0.410239 -0.026,9.1e-4 -0.0966,-0.03392 -0.17308,-0.0855 -0.30945,-0.20875 -0.55129,-0.287814 -0.95104,-0.310871 -0.29465,-0.01694 -0.75323,0.03815 -1.18555,0.142576 -0.20999,0.05071 -0.31325,0.05201 -0.52786,0.0067 -0.0904,-0.01907 -0.20336,-0.04278 -0.25096,-0.05256 -0.0475,-0.0097 -0.15661,-0.01755 -0.24231,-0.01755 -0.26209,4.55e-4 -0.49748,0.08467 -0.84266,0.30134 l -0.18285,0.114769 -0.10166,-0.04133 c -0.12499,-0.05078 -0.30356,-0.08817 -0.542843,-0.11368 -0.50523,-0.05386 -0.7141,-0.164603 -0.86909,-0.460724 -0.14847,-0.283699 -0.18996,-0.531404 -0.19822,-1.183485 -0.004,-0.280794 -0.0118,-0.512436 -0.019,-0.514733 -0.0251,-0.0085 -0.2721,0.473014 -0.39293,0.76569 -0.12592,0.305111 -0.18158,0.729956 -0.1224,0.93499 0.0833,0.288753 0.21876,0.41737 0.69835,0.663307 0.43115,0.221094 0.52282,0.30419 0.52253,0.473669 -2.7e-4,0.167357 -0.0671,0.255134 -0.27876,0.366183 -0.19995,0.10491 -0.23472,0.14884 -0.20449,0.258283 0.0451,0.163513 0.15938,0.219792 0.58776,0.289537 0.637313,0.103755 0.709113,0.157071 0.824253,0.612006 0.0611,0.241701 0.0751,0.628636 0.0317,0.87129 -0.11468,0.639419 -0.496443,1.198043 -1.104943,1.616896 -0.12303,0.08475 -0.19111,0.11728 -0.34614,0.165541 -0.34521,0.107474 -0.58606,0.229053 -0.8852,0.446889 -0.16836,0.122574 -0.31649,0.251139 -0.88502,0.768178 -0.15101,0.137341 -0.35025,0.310115 -0.44277,0.383941 -0.18778,0.149897 -0.17534,0.145994 -0.51543,0.161033 -0.36523,0.01603 -0.82972,0.113831 -1.32726,0.279159 -0.34848,0.115801 -0.68826,0.25347 -1.31727,0.533798 -0.26939,0.120062 -0.49804,0.218281 -0.50807,0.218281 -0.0297,0 -0.49413,-0.282126 -0.7852,-0.477074 -0.80196,-0.537044 -1.06486,-0.873616 -0.85329,-1.092409 0.13665,-0.141333 0.41049,-0.221517 1.20101,-0.351787 0.28788,-0.04745 0.61958,-0.105416 0.73709,-0.128808 0.83021,-0.165389 1.22826,-0.425066 1.25651,-0.819622 0.0278,-0.388199 -0.21889,-0.747394 -0.78323,-1.140592 -0.59595,-0.415214 -0.72042,-0.509413 -0.8756,-0.66261 -0.0915,-0.09041 -0.18506,-0.199459 -0.20767,-0.242305 -0.059,-0.111592 -0.0537,-0.275013 0.0173,-0.55382 0.10012,-0.392228 0.0914,-0.555273 -0.0371,-0.701385 -0.0841,-0.09546 -0.17249,-0.148445 -0.34213,-0.204906 -0.15446,-0.05144 -0.43434,-0.102753 -0.45385,-0.08324 -0.008,0.0076 0.001,0.05933 0.0212,0.11498 0.0493,0.142969 0.046,0.287602 -0.009,0.406152 -0.0239,0.05175 -0.11495,0.188024 -0.20188,0.302873 -0.26183,0.345788 -0.34605,0.573348 -0.34632,0.935705 -1.4e-4,0.179914 0.0287,0.432178 0.0542,0.47335 0.0364,0.05906 0.77448,0.352917 1.35156,0.538169 0.69328,0.222548 0.89778,0.331969 0.98847,0.52881 0.0683,0.148112 0.0166,0.493464 -0.0769,0.516921 -0.0206,0.0052 -0.31223,0.04875 -0.64803,0.09698 -1.32282,0.189777 -1.79697,0.334582 -2.10017,0.64138 -0.134648,0.136251 -0.177736,0.237675 -0.176647,0.41585 0.0021,0.421781 0.459227,0.982421 1.385977,1.701511 0.10706,0.08309 0.19468,0.163454 0.19468,0.178614 0,0.05664 -0.25422,0.276496 -0.54516,0.471446 -0.63419,0.424974 -0.830478,0.623288 -1.087013,1.098077 -0.05906,0.109102 -0.192047,0.309987 -0.29577,0.446399 -0.103789,0.136402 -0.335437,0.469185 -0.514927,0.7395 l -0.326338,0.491472 -0.184665,0.105637 c -0.217857,0.124601 -0.433314,0.318319 -0.551117,0.495502 -0.20173,0.303465 -0.369586,0.781233 -0.468019,1.332169 -0.01604,0.09041 -0.03982,0.185088 -0.05264,0.210354 -0.03619,0.07126 -0.205421,0.27686 -0.446568,0.54249 -0.251201,0.276677 -0.362686,0.433778 -0.420113,0.591944 -0.04665,0.128384 -0.05007,0.207507 -0.01454,0.327217 0.02754,0.09228 0.09175,0.166358 0.170261,0.19604 0.06961,0.02632 0.273743,0.0227 0.500183,-0.0088 0.213166,-0.02965 0.248809,-0.04857 0.307695,-0.163301 0.04848,-0.09438 0.06823,-0.186632 0.09535,-0.444698 0.02391,-0.22636 0.06269,-0.406331 0.09674,-0.448166 0.0085,-0.01056 0.0725,-0.04715 0.142242,-0.0816 0.14309,-0.07071 0.265906,-0.171472 0.33957,-0.278555 0.02754,-0.03987 0.109465,-0.191018 0.182364,-0.335872 0.188386,-0.374572 0.216768,-0.400269 0.57306,-0.519398 0.457214,-0.152863 0.660998,-0.248841 1.270655,-0.598412 0.286,-0.163968 0.37773,-0.192138 0.62592,-0.192138 0.11101,0 0.20763,0.0057 0.21465,0.01271 0.007,0.0069 0.0187,0.147206 0.0263,0.311531 0.0212,0.46964 0.0767,0.681573 0.21048,0.80246 0.0657,0.05915 0.0748,0.06224 0.16694,0.05558 0.12865,-0.0094 0.21667,-0.05419 0.45228,-0.230717 0.10772,-0.08073 0.202,-0.146811 0.20945,-0.146811 0.008,0 0.0384,0.03697 0.0688,0.08221 0.27587,0.410991 0.60492,0.449428 0.92122,0.107628 0.0589,-0.06357 0.13423,-0.163937 0.16753,-0.22303 0.10563,-0.187298 0.0761,-0.173289 0.38941,-0.185058 0.33315,-0.01241 0.46627,0.01001 0.67798,0.114289 0.19961,0.0984 0.30383,0.185722 0.36089,0.302398 0.11365,0.23235 -0.005,0.430981 -0.45907,0.769834 -0.40746,0.303895 -0.52933,0.455163 -0.51594,0.640325 0.0197,0.271292 0.24871,0.477933 0.66304,0.59815 0.0856,0.02481 0.28038,0.06391 0.43268,0.08681 0.15231,0.02299 0.41319,0.06266 0.57979,0.08842 0.37543,0.05801 0.52194,0.0642 0.70859,0.02996 z"
       id="path1347"
       inkscape:connector-curvature="0" />
    <path
       sodipodi:type="star"
       style="opacity:0.98999999;fill:#ffeeaa;fill-opacity:1;stroke:none;stroke-width:0.33632454;stroke-linejoin:round;stroke-miterlimit:4;stroke-dasharray:none;stroke-dashoffset:0;stroke-opacity:1"
       id="path1349"
       sodipodi:sides="6"
       sodipodi:cx="98.523184"
       sodipodi:cy="18.042805"
       sodipodi:r1="4.3393726"
       sodipodi:r2="1.6272647"
       sodipodi:arg1="0.52359878"
       sodipodi:arg2="1.0471976"
       inkscape:flatsided="false"
       inkscape:rounded="0"
       inkscape:randomized="0"
       d="m 102.28119,20.212491 -2.944372,-0.760434 -0.813632,2.93012 -0.813633,-2.93012 -2.944374,0.760434 2.130742,-2.169686 -2.130742,-2.169687 2.944374,0.760434 0.813633,-2.93012 0.813632,2.93012 2.944372,-0.760434 -2.13074,2.169687 z" />
  </g>
</svg>
